<svg width="43" height="43" viewBox="0 0 43 43" fill="none" xmlns="http://www.w3.org/2000/svg">
<g clip-path="url(#clip0_1_37)">
<path d="M37.4141 5.87891C38.8056 5.87891 39.9337 4.75087 39.9337 3.35938C39.9337 1.96788 38.8056 0.839844 37.4141 0.839844C36.0226 0.839844 34.8946 1.96788 34.8946 3.35938C34.8946 4.75087 36.0226 5.87891 37.4141 5.87891Z" fill="#79E59B"/>
<path d="M34.8903 12.8085H34.8911C37.7911 13.5534 39.9335 16.1846 39.9335 19.3164C39.9335 23.0268 36.9252 26.0352 33.2148 26.0352C29.5044 26.0352 26.496 23.0268 26.496 19.3164C22.7856 19.3164 19.7773 16.3081 19.7773 12.5977C19.7773 11.6696 19.0256 10.918 18.0976 10.918H14.7911V10.8659L14.7382 9.23828C14.7382 6.45504 16.994 4.19922 19.7773 4.19922C20.3811 4.19922 20.9522 4.32268 21.4889 4.51752C21.4788 4.4117 21.457 4.3084 21.457 4.19922C21.457 2.344 22.9611 0.839844 24.8163 0.839844C26.6716 0.839844 28.1757 2.344 28.1757 4.19922C28.1757 4.8291 27.9926 5.41195 27.6895 5.8957C29.7361 5.75209 31.6056 6.52559 32.9267 7.84666C34.1428 9.06275 34.8945 10.7424 34.8945 12.5977C34.8945 12.6682 34.8936 12.7387 34.8903 12.8085Z" fill="#79E59B"/>
<path d="M26.2567 39.7851C26.7623 40.8979 25.9493 42.1602 24.7274 42.1602H4.74916C3.52718 42.1602 2.71422 40.8979 3.2198 39.7851L9.49008 27.0228L9.53123 27.043H19.9453L19.9864 27.0228L26.2567 39.7851Z" fill="#79E59B"/>
<path d="M11.3789 14.2773C10.4508 14.2773 9.69917 13.5257 9.69917 12.5977C9.69917 11.6705 10.4517 10.918 11.3789 10.918C11.7479 10.918 17.7269 10.918 18.0976 10.918C19.0256 10.918 19.7773 11.6696 19.7773 12.5977C19.7773 13.5248 19.0248 14.2773 18.0976 14.2773V23.1797L19.9864 27.0228L19.9453 27.043H9.5312L9.49005 27.0228L11.3789 23.1797V14.2773Z" fill="#D4E9FF"/>
<path d="M14.7382 30.4023C15.6662 30.4023 16.4179 31.154 16.4179 32.082C16.4179 33.0101 15.6662 33.7617 14.7382 33.7617C13.8102 33.7617 13.0585 33.0101 13.0585 32.082C13.0585 31.154 13.8102 30.4023 14.7382 30.4023Z" fill="#D4E9FF"/>
<path d="M29.8554 11.7578C30.319 11.7578 30.6953 11.3816 30.6953 10.918C30.6953 10.4544 30.319 10.0781 29.8554 10.0781C29.3918 10.0781 29.0156 10.4544 29.0156 10.918C29.0156 11.3816 29.3918 11.7578 29.8554 11.7578Z" fill="black"/>
<path d="M26.496 15.1172C26.9596 15.1172 27.3359 14.7409 27.3359 14.2773C27.3359 13.8137 26.9596 13.4375 26.496 13.4375C26.0324 13.4375 25.6562 13.8137 25.6562 14.2773C25.6562 14.7409 26.0324 15.1172 26.496 15.1172Z" fill="black"/>
<path d="M23.1367 10.0781C23.6003 10.0781 23.9765 9.70187 23.9765 9.23828C23.9765 8.77469 23.6003 8.39844 23.1367 8.39844C22.6731 8.39844 22.2968 8.77469 22.2968 9.23828C22.2968 9.70187 22.6731 10.0781 23.1367 10.0781Z" fill="black"/>
<path d="M19.7773 39.6406C20.2409 39.6406 20.6171 39.2644 20.6171 38.8008C20.6171 38.3372 20.2409 37.9609 19.7773 37.9609C19.3137 37.9609 18.9374 38.3372 18.9374 38.8008C18.9374 39.2644 19.3137 39.6406 19.7773 39.6406Z" fill="black"/>
<path d="M4.74904 43H24.7273C26.5608 43 27.7787 41.1051 27.0213 39.4377C27.0178 39.43 27.0141 39.4224 27.0104 39.4148C27.0042 39.402 18.9437 22.9974 18.9374 22.9845V14.9742C19.0532 14.9333 19.1659 14.884 19.2746 14.8264C20.1523 17.6646 22.6586 19.7943 25.6979 20.1145C26.0977 23.9087 29.3163 26.875 33.2148 26.875C37.3826 26.875 40.7734 23.4842 40.7734 19.3164C40.7734 16.0825 38.7266 13.2364 35.7225 12.1838C35.6225 10.3203 34.8501 8.58245 33.5207 7.25281C32.2773 6.0095 30.6489 5.24877 28.9197 5.0766C28.9832 4.7903 29.0157 4.49619 29.0157 4.19922C29.0157 1.88377 27.1319 0 24.8164 0C22.761 0 21.0458 1.48442 20.6864 3.43748C20.3803 3.38549 20.0767 3.35938 19.7774 3.35938C16.5357 3.35938 13.8985 5.99665 13.8985 9.23828C13.8985 9.24735 13.8986 9.25651 13.8989 9.26558L13.9253 10.0781H11.3789C9.9869 10.0781 8.85941 11.2055 8.85941 12.5977C8.85941 13.6925 9.5616 14.626 10.5391 14.9727V22.9845C10.4738 23.1175 2.47172 39.4031 2.46601 39.4148C2.46232 39.4224 2.4587 39.4301 2.45518 39.4377C1.69671 41.1072 2.91793 43 4.74904 43ZM15.5781 9.22526C15.5852 6.91586 17.4662 5.03906 19.7773 5.03906C20.2397 5.03906 20.7058 5.12666 21.2023 5.30697C21.7813 5.5171 22.3834 5.05149 22.325 4.43782C22.1725 2.85253 23.419 1.67969 24.8164 1.67969C26.2056 1.67969 27.3359 2.80995 27.3359 4.19922C27.3359 4.64358 27.212 5.07593 26.9778 5.44975C26.81 5.71749 26.8067 6.05687 26.9693 6.32789C27.132 6.5989 27.431 6.75512 27.7482 6.73353C29.4573 6.61352 31.128 7.23576 32.3328 8.44051C34.6401 10.7478 34.6169 14.4708 32.3328 16.7548C32.0048 17.0828 32.0048 17.6145 32.3328 17.9426C32.6608 18.2705 33.1925 18.2705 33.5206 17.9426C34.6203 16.8429 35.3424 15.4525 35.613 13.9462C37.7028 14.8771 39.0937 16.9648 39.0937 19.3164C39.0937 22.558 36.4564 25.1953 33.2148 25.1953C29.9732 25.1953 27.3359 22.558 27.3359 19.3164C27.3359 18.8526 26.9598 18.4766 26.496 18.4766C23.2544 18.4766 20.6171 15.8393 20.6171 12.5977C20.6171 11.2084 19.4869 10.0781 18.0976 10.0781H15.6058L15.5781 9.22526ZM11.3789 11.7578H18.0976C18.5607 11.7578 18.9375 12.1346 18.9375 12.5977C18.9375 13.0614 18.5613 13.4375 18.0976 13.4375H16.4179C15.9542 13.4375 15.5781 13.8135 15.5781 14.2773C15.5781 14.7412 15.9542 15.1172 16.4179 15.1172H17.2578V23.1797C17.2578 23.3081 17.2872 23.4349 17.3438 23.5501L18.6477 26.2031H10.8286L12.1325 23.5501C12.1892 23.4349 12.2186 23.3082 12.2186 23.1797V15.1172H13.0585C13.5222 15.1172 13.8983 14.7412 13.8983 14.2773C13.8983 13.8135 13.5222 13.4375 13.0585 13.4375H11.3788C10.9157 13.4375 10.5389 13.0607 10.5389 12.5977C10.539 12.1339 10.9152 11.7578 11.3789 11.7578ZM3.98 40.1422L10.0032 27.8828H19.4732L25.4964 40.1422C25.7408 40.6972 25.3366 41.3203 24.7273 41.3203H4.74904C4.14016 41.3203 3.73544 40.6975 3.98 40.1422Z" fill="black"/>
<path d="M14.7382 34.6016C16.1275 34.6016 17.2578 33.4713 17.2578 32.082C17.2578 30.6928 16.1275 29.5625 14.7382 29.5625C13.349 29.5625 12.2187 30.6928 12.2187 32.082C12.2187 33.4713 13.349 34.6016 14.7382 34.6016ZM14.7382 31.2422C15.2013 31.2422 15.5781 31.6189 15.5781 32.082C15.5781 32.5451 15.2013 32.9219 14.7382 32.9219C14.2751 32.9219 13.8984 32.5451 13.8984 32.082C13.8984 31.6189 14.2751 31.2422 14.7382 31.2422Z" fill="black"/>
<path d="M37.414 6.71875C39.2664 6.71875 40.7734 5.21173 40.7734 3.35938C40.7734 1.50702 39.2664 0 37.414 0C35.5616 0 34.0546 1.50702 34.0546 3.35938C34.0546 5.21173 35.5616 6.71875 37.414 6.71875ZM37.414 1.67969C38.3402 1.67969 39.0937 2.4332 39.0937 3.35938C39.0937 4.28555 38.3402 5.03906 37.414 5.03906C36.4878 5.03906 35.7343 4.28555 35.7343 3.35938C35.7343 2.4332 36.4877 1.67969 37.414 1.67969Z" fill="black"/>
<path d="M11.3788 39.6406H16.4179C16.8817 39.6406 17.2578 39.2646 17.2578 38.8008C17.2578 38.3369 16.8817 37.9609 16.4179 37.9609H11.3788C10.9151 37.9609 10.539 38.3369 10.539 38.8008C10.539 39.2646 10.915 39.6406 11.3788 39.6406Z" fill="black"/>
</g>
<defs>
<clipPath id="clip0_1_37">
<rect width="43" height="43" fill="white"/>
</clipPath>
</defs>
</svg>
